# xmcd CD database file
#
# Track frame offsets:
#	150
#	10290
#	30155
#	45792
#	51970
#	70475
#	86125
#	105550
#	123975
#	140342
#	159132
#	182172
#	200212
#	210132
#	222545
#	239292
#	257637
#	275547
#	292480
#	307187
#	334520
#
# Disc length: 4563 seconds
#
# Revision: 0
# Processed by: cddbd v1.5PL3 Copyright (c) Steve Scherf et al.
# Submitted via: CDex 1.51
#
DISCID=3711d115
DTITLE=bass - BASS PATROL! VOL.9
DYEAR=1997
DGENRE=Bass
TTITLE0=LIKE DIS BABY - YOUNG and RESTLESS
TTITLE1=I WANNNA ROCK - LUKE
TTITLE2=CUM-MO-NOW - SIX "OH" BOYS
TTITLE3=HAPPY BIRTHDAY - BIG BOY
TTITLE4=WILD ON OUT - BASS PATROL
TTITLE5=IT'S YOUR BIRTHDAY - LUKE
TTITLE6=DON'T FIGHT THE FEELIN - GODS OF QUAD
TTITLE7=KEEP IT TO YOURSELF - KOOLEY C
TTITLE8=SHAKE DAT ASS - BASS BOSS
TTITLE9=LET ME SEE U JIGGLE IT - BASS BOSS
TTITLE10=DEBONAIRES TOGA PARY! - BASS BOSS
TTITLE11=DICK HUNGRY ASS HOES - NASTY BOYS FEAT.GIN and JUICE
TTITLE12=WHO YA BABY - CRAZY L'EGGS
TTITLE13=JUMP - BASS PATROL
TTITLE14=STEP IF U WANNA - BASS PATROL
TTITLE15=GIN and JUICE - NASTY BOYS FEAT.GIN and JUICE
TTITLE16=FREAK IT! - GODS OF QUAD
TTITLE17=FOOT DRAGGERS - SIX "OH" BOYS
TTITLE18=SHAKE IT - SIX "OH" BOYS
TTITLE19=SHAKE'EM DOWN - BASS BOSS feat.DJ LUIS THE LION
TTITLE20=data
EXTD=YEAR: 1997
EXTT0=
EXTT1=
EXTT2=
EXTT3=
EXTT4=
EXTT5=
EXTT6=
EXTT7=
EXTT8=
EXTT9=
EXTT10=
EXTT11=
EXTT12=
EXTT13=
EXTT14=
EXTT15=
EXTT16=
EXTT17=
EXTT18=
EXTT19=
EXTT20=
PLAYORDER=
